<?xml version="1.0" standalone="no"?>
<!DOCTYPE svg PUBLIC "-//W3C//DTD SVG 20010904//EN"
 "http://www.w3.org/TR/2001/REC-SVG-20010904/DTD/svg10.dtd">
<svg version="1.0" xmlns="http://www.w3.org/2000/svg"
 width="1920.000000pt" height="1080.000000pt" viewBox="0 0 1920.000000 1080.000000"
 preserveAspectRatio="xMidYMid meet">

<g transform="translate(0.000000,1080.000000) scale(0.100000,-0.100000)"
fill="#000000" stroke="none">
<path d="M2990 5400 l0 -5400 5365 0 5365 0 0 5400 0 5400 -5365 0 -5365 0 0
-5400z m5605 2305 c273 -63 513 -194 711 -390 288 -284 438 -642 439 -1045 0
-317 -78 -573 -256 -839 -69 -103 -229 -273 -329 -348 -436 -326 -1032 -388
-1519 -156 -743 355 -1056 1233 -703 1973 190 400 552 694 986 800 133 33 205
39 391 35 136 -3 192 -9 280 -30z m-3443 -3529 c169 -52 298 -173 358 -341 16
-43 40 -174 40 -217 0 -61 -29 -180 -58 -239 l-28 -57 45 -5 c27 -3 50 -12 58
-23 18 -25 19 -303 1 -306 -7 -1 -83 -2 -168 -2 -85 -1 -232 -7 -326 -15 -311
-26 -441 16 -581 189 -114 141 -149 257 -140 464 9 222 83 367 240 471 68 45
182 86 267 96 86 10 233 2 292 -15z m957 -20 c8 -10 14 -136 19 -414 7 -377 8
-401 26 -421 26 -29 63 -24 90 12 20 28 21 40 23 420 1 216 2 398 3 405 0 15
441 18 469 3 16 -9 17 -37 13 -423 -4 -458 -8 -491 -66 -582 -52 -81 -140
-135 -276 -170 -95 -25 -333 -22 -429 4 -183 51 -282 144 -321 301 -7 29 -10
181 -8 454 l3 410 65 6 c36 3 135 6 221 7 123 2 159 -1 168 -12z m1133 4 l128
0 0 -585 0 -585 -247 0 -246 0 7 213 c3 116 7 379 7 583 0 205 3 375 7 379 4
4 54 5 111 1 57 -3 162 -6 233 -6z m756 -2 c9 -9 12 -72 13 -218 l0 -205 72
146 c40 80 87 178 106 217 l33 72 172 -1 c94 -1 200 -4 236 -8 74 -7 77 -14
36 -80 -12 -20 -39 -67 -60 -104 -43 -79 -53 -98 -134 -238 -76 -132 -77 -133
-56 -153 17 -17 114 -173 114 -183 0 -3 8 -17 19 -31 10 -15 31 -49 46 -77 16
-27 44 -78 63 -112 33 -59 62 -87 62 -61 0 39 320 1009 341 1035 16 18 572 19
586 1 6 -7 32 -80 58 -163 25 -82 55 -175 65 -205 10 -30 41 -127 68 -215 83
-264 133 -427 153 -489 23 -71 23 -82 3 -90 -23 -9 -437 -7 -451 2 -7 4 -17
32 -23 60 -10 55 -26 92 -44 104 -6 4 -70 8 -143 8 -151 0 -141 6 -164 -98 -9
-42 -20 -67 -32 -74 -25 -13 -860 -12 -885 1 -9 5 -62 97 -117 205 -55 108
-104 191 -109 186 -4 -4 -11 -94 -14 -199 -5 -184 -6 -192 -26 -197 -12 -2
-115 -3 -231 -2 l-210 3 -3 575 c-1 316 0 581 3 588 6 17 435 18 453 0z m2921
-11 c83 -24 151 -75 186 -138 26 -48 29 -63 29 -144 0 -73 -4 -98 -21 -130
-25 -48 -76 -101 -115 -121 -26 -14 -38 -34 -19 -34 4 0 29 -18 54 -40 32 -29
52 -57 67 -97 21 -56 50 -240 50 -317 0 -22 5 -54 12 -72 22 -61 12 -64 -214
-64 -114 0 -207 4 -218 10 -20 11 -40 88 -60 245 -7 50 -16 97 -21 106 -11 21
-61 42 -91 37 l-23 -3 -3 -185 c-2 -160 -5 -187 -19 -197 -12 -10 -76 -13
-234 -13 -189 0 -218 2 -223 16 -3 9 -6 269 -6 580 l0 564 23 4 c12 3 31 7 42
10 11 3 184 3 385 2 294 -3 375 -7 419 -19z m1269 -146 c2 -117 -1 -157 -10
-163 -7 -5 -68 -5 -135 -2 l-123 7 0 -415 c0 -309 -3 -417 -12 -426 -9 -9 -75
-12 -234 -12 -188 0 -224 2 -234 15 -11 13 -12 92 -6 389 4 241 3 383 -4 400
-9 26 -10 26 -122 26 -62 0 -120 5 -128 10 -12 7 -16 38 -18 146 -2 75 -1 147
2 160 l6 24 508 -2 507 -3 3 -154z"/>
<path d="M8065 7615 c-522 -86 -930 -435 -1095 -938 -44 -132 -52 -183 -57
-377 -5 -180 1 -248 37 -385 121 -465 501 -846 965 -970 269 -72 578 -57 840
42 182 68 332 168 485 322 204 205 318 423 376 721 20 105 20 364 -2 477 -52
279 -178 518 -384 724 -216 217 -471 342 -787 389 -95 13 -278 11 -378 -5z
m-305 -650 l5 -90 630 -5 630 -5 0 -407 0 -408 -33 -32 -32 -33 -533 -5 -532
-5 -3 -92 -3 -93 499 0 c374 0 501 -3 510 -12 13 -13 16 -75 6 -102 -5 -12
-21 -16 -70 -16 l-64 0 6 -38 c16 -103 -85 -182 -178 -138 -47 23 -70 65 -67
124 l3 47 -199 0 -198 0 -1 -57 c-1 -51 -5 -61 -32 -89 -23 -23 -43 -32 -75
-36 -54 -5 -86 11 -117 57 -20 29 -23 43 -18 82 l5 47 -67 3 -67 3 -3 156 -2
156 -40 12 c-22 7 -48 24 -59 40 -20 28 -21 44 -23 462 l-3 434 -62 3 -63 3 0
58 c0 32 3 61 7 65 4 3 59 5 122 4 l116 -3 5 -90z"/>
<path d="M7764 6727 c-3 -8 -4 -36 -2 -63 l3 -49 60 0 60 0 0 60 0 60 -58 3
c-42 2 -59 -1 -63 -11z"/>
<path d="M8022 6678 l3 -63 55 0 55 0 3 63 3 62 -61 0 -61 0 3 -62z"/>
<path d="M8272 6678 l3 -63 60 0 60 0 0 60 0 60 -63 3 -63 3 3 -63z"/>
<path d="M8532 6678 l3 -63 55 0 55 0 3 63 3 62 -61 0 -61 0 3 -62z"/>
<path d="M8782 6678 l3 -63 39 -3 c22 -2 50 -1 63 3 22 5 24 10 21 63 l-3 57
-63 3 -63 3 3 -63z"/>
<path d="M7765 6467 c-4 -13 -5 -41 -3 -63 l3 -39 60 0 60 0 0 60 0 60 -57 3
c-53 3 -58 1 -63 -21z"/>
<path d="M8027 6484 c-4 -4 -7 -34 -7 -66 l0 -58 60 0 61 0 -3 63 -3 62 -50 3
c-28 2 -54 0 -58 -4z"/>
<path d="M8277 6483 c-4 -3 -7 -33 -7 -65 l0 -58 59 0 c65 0 71 6 71 65 0 58
-7 65 -64 65 -29 0 -56 -3 -59 -7z"/>
<path d="M8537 6483 c-4 -3 -7 -33 -7 -65 l0 -58 60 0 60 0 0 65 0 65 -53 0
c-30 0 -57 -3 -60 -7z"/>
<path d="M8780 6425 l0 -65 59 0 c65 0 71 6 71 65 0 59 -6 65 -71 65 l-59 0 0
-65z"/>
<path d="M7760 6170 l0 -60 65 0 65 0 0 60 0 60 -65 0 -65 0 0 -60z"/>
<path d="M8020 6170 l0 -60 60 0 60 0 0 60 0 60 -60 0 -60 0 0 -60z"/>
<path d="M8270 6170 l0 -61 63 3 62 3 0 55 0 55 -62 3 -63 3 0 -61z"/>
<path d="M8530 6170 l0 -60 60 0 60 0 0 60 0 60 -60 0 -60 0 0 -60z"/>
<path d="M8780 6170 l0 -61 63 3 62 3 0 55 0 55 -62 3 -63 3 0 -61z"/>
<path d="M4900 3893 c-77 -39 -119 -198 -105 -398 7 -113 28 -177 66 -210 30
-25 63 -33 73 -17 3 5 19 9 35 10 45 1 66 17 90 68 44 93 45 398 1 483 -35 70
-99 95 -160 64z"/>
<path d="M9325 3871 c-19 -38 -40 -102 -55 -171 -7 -30 -21 -92 -31 -138 -27
-113 -21 -122 75 -122 83 0 136 15 136 38 0 9 -6 43 -14 76 -13 54 -59 261
-72 324 -6 30 -21 28 -39 -7z"/>
<path d="M10534 3883 c-3 -16 -7 -33 -9 -40 -7 -22 17 -158 30 -172 11 -11 22
-11 64 -1 70 17 111 65 111 130 0 73 -52 110 -152 110 -33 0 -38 -3 -44 -27z"/>
</g>
</svg>
